<?xml version="1.0" encoding="UTF-8" standalone="no"?>
<!-- Created with Inkscape (http://www.inkscape.org/) -->

<svg
   width="100mm"
   height="100mm"
   viewBox="0 0 100 100"
   version="1.1"
   id="svg1"
   xml:space="preserve"
   sodipodi:docname="breastfeeding.svg"
   inkscape:version="1.4 (e7c3feb1, 2024-10-09)"
   xmlns:inkscape="http://www.inkscape.org/namespaces/inkscape"
   xmlns:sodipodi="http://sodipodi.sourceforge.net/DTD/sodipodi-0.dtd"
   xmlns="http://www.w3.org/2000/svg"
   xmlns:svg="http://www.w3.org/2000/svg"><sodipodi:namedview
     id="namedview1"
     pagecolor="#ffffff"
     bordercolor="#000000"
     borderopacity="0.25"
     inkscape:showpageshadow="2"
     inkscape:pageopacity="0.0"
     inkscape:pagecheckerboard="0"
     inkscape:deskcolor="#d1d1d1"
     inkscape:document-units="mm"
     inkscape:zoom="1.2300208"
     inkscape:cx="188.2082"
     inkscape:cy="176.82628"
     inkscape:window-width="1904"
     inkscape:window-height="1012"
     inkscape:window-x="8"
     inkscape:window-y="25"
     inkscape:window-maximized="0"
     inkscape:current-layer="layer1" /><defs
     id="defs1" /><g
     inkscape:label="Layer 1"
     inkscape:groupmode="layer"
     id="layer1"><path
       style="fill:#ffffff;stroke-width:0.850682"
       d="M 24.432218,99.960545 C 23.393549,99.506797 22.325625,98.511938 21.777703,97.487644 21.281151,96.559382 21.281151,96.559382 21.168613,79.228508 L 21.056074,61.897635 14.537298,61.785097 8.0185215,61.672559 7.713563,61.109868 c -0.2765746,-0.51032 0.030378,-1.888832 3.298032,-14.811115 4.181104,-16.53463 4.206464,-16.604254 7.113502,-19.529013 1.656703,-1.666804 2.677927,-2.353 12.384182,-8.321361 5.818221,-3.577616 11.135648,-6.69569 11.816504,-6.929054 0.916687,-0.314195 1.649957,-0.398383 2.825764,-0.324431 3.923933,0.246794 6.774721,3.008794 7.983425,7.734781 0.389311,1.52219 0.444625,2.500597 0.444625,7.864504 0,4.628895 0.06876,6.181885 0.281346,6.354564 0.15474,0.125691 2.96538,1.62038 6.245867,3.32153 3.280487,1.701151 6.326471,3.33394 6.768851,3.62842 1.794939,1.194845 2.412968,3.744678 1.360436,5.612875 -0.573632,1.018177 -2.053844,2.100922 -2.941318,2.151518 -1.68492,0.09606 -2.394334,-0.201332 -10.139648,-4.250601 -4.394614,-2.297516 -8.216314,-4.324551 -8.492665,-4.504524 -0.276352,-0.179972 -0.732131,-0.696559 -1.012844,-1.14797 -0.460509,-0.740542 -0.521383,-1.178981 -0.622923,-4.486571 l -0.112539,-3.665823 -4.375655,2.67413 c -2.40661,1.470773 -4.462809,2.869449 -4.56933,3.108171 -0.140722,0.31537 0.854489,3.780429 3.640034,12.673621 3.449695,11.01358 3.805657,12.298152 3.553683,12.824311 l -0.280023,0.584729 -5.624104,0.112538 -5.624106,0.112538 -0.112537,17.330873 c -0.08209,12.641525 -0.184584,17.491586 -0.378806,17.924831 -0.442349,0.986732 -1.700977,2.265367 -2.657794,2.700039 -1.06039,0.481722 -3.074035,0.534972 -4.053304,0.107167 z M 47.052385,74.952059 V 71.91353 h 23.182857 23.182853 v 3.038529 3.03853 H 70.235242 47.052385 Z m 7.502239,-4.604902 c -1.972456,-0.469808 -3.810709,-2.170348 -4.434724,-4.102499 -0.828579,-2.565549 -0.325193,-5.203895 1.670553,-8.755688 0.736446,-1.310638 1.338992,-2.535274 1.338992,-2.721413 0,-0.18614 -0.531743,-0.620216 -1.18165,-0.964615 -5.533803,-2.93247 -5.817163,-3.115562 -6.423792,-4.150695 -0.695603,-1.186959 -0.779865,-2.873356 -0.199632,-3.995403 0.841244,-1.626785 2.871829,-2.586334 4.541468,-2.14606 0.495167,0.130573 3.483055,1.604305 6.63975,3.27496 6.751395,3.573121 7.094528,3.867385 7.082089,6.073462 -0.008,1.412724 -0.185559,1.82608 -2.166805,5.043325 l -0.450472,0.731498 h 3.95719 3.957194 l 8.5e-4,-3.544952 c 0.0017,-4.033391 0.17804,-4.927544 1.169059,-5.918558 0.885832,-0.885833 1.579019,-1.15401 2.96335,-1.146438 1.380649,0.0076 2.652231,0.799379 3.289401,2.048334 0.430751,0.844342 0.454604,1.309272 0.454604,8.862774 0,6.437986 -0.06253,8.121287 -0.324892,8.749254 -0.430794,1.031035 -1.909841,2.340414 -2.979055,2.637319 -0.988969,0.274621 -17.762924,0.297155 -18.903887,0.02539 z m 28.876593,-1.063706 c -0.62674,-0.216593 -1.602242,-0.84123 -2.277369,-1.458256 -3.591486,-3.282417 -2.811615,-8.849969 1.539717,-10.992122 3.419376,-1.683352 7.397182,-0.323924 9.080095,3.103148 0.846861,1.724551 0.872475,4.095571 0.06244,5.778215 -1.497473,3.110538 -5.191942,4.679346 -8.404857,3.569015 z m -26.02411,-54.46457 c -2.466003,-0.862776 -4.202165,-2.835756 -4.867351,-5.5312716 -0.401294,-1.6261542 -0.27141,-2.9851075 0.448153,-4.6889563 0.547755,-1.2970255 2.281455,-3.0474126 3.697209,-3.73279349 1.099351,-0.53220707 1.557911,-0.6201863 3.196616,-0.61330003 2.315737,0.009732 3.530973,0.48220568 5.160367,2.00631562 1.232655,1.153005 1.946182,2.4795143 2.31109,4.2965494 0.487262,2.4262188 -0.917698,5.7991084 -3.017216,7.2434554 -1.985018,1.365578 -4.769523,1.775486 -6.928868,1.020001 z"
       id="path1" /></g></svg>
