<?xml version="1.0" encoding="UTF-8" standalone="no"?>
<!-- Created with Inkscape (http://www.inkscape.org/) -->

<svg
   width="100mm"
   height="100mm"
   viewBox="0 0 100 100"
   version="1.1"
   id="svg1"
   xml:space="preserve"
   sodipodi:docname="stairlift.svg"
   inkscape:version="1.4 (e7c3feb1, 2024-10-09)"
   xmlns:inkscape="http://www.inkscape.org/namespaces/inkscape"
   xmlns:sodipodi="http://sodipodi.sourceforge.net/DTD/sodipodi-0.dtd"
   xmlns="http://www.w3.org/2000/svg"
   xmlns:svg="http://www.w3.org/2000/svg"><sodipodi:namedview
     id="namedview1"
     pagecolor="#ffffff"
     bordercolor="#000000"
     borderopacity="0.25"
     inkscape:showpageshadow="2"
     inkscape:pageopacity="0.0"
     inkscape:pagecheckerboard="0"
     inkscape:deskcolor="#d1d1d1"
     inkscape:document-units="mm"
     inkscape:zoom="1.2300208"
     inkscape:cx="189.02119"
     inkscape:cy="176.82628"
     inkscape:window-width="1904"
     inkscape:window-height="1012"
     inkscape:window-x="8"
     inkscape:window-y="25"
     inkscape:window-maximized="0"
     inkscape:current-layer="layer1" /><defs
     id="defs1" /><g
     inkscape:label="Layer 1"
     inkscape:groupmode="layer"
     id="layer1"><path
       style="fill:#ffffff;stroke-width:1.00881"
       d="M 9.2724624,99.431064 C 9.0601598,99.127959 8.9423137,98.677541 9.0105812,98.430133 9.078844,98.182723 15.124171,92.875548 22.444629,86.636409 l 13.309926,-11.343891 -10.653217,-0.06975 -10.653219,-0.06975 -0.07445,-3.46768 -0.07446,-3.46768 -6.1012966,5.20565 c -3.3557127,2.863107 -6.2162632,5.205648 -6.3567805,5.205648 -0.635717,0 -1.28804991,-0.605153 -1.28804991,-1.194895 0,-0.517749 2.47117281,-2.749228 12.74519601,-11.508956 7.009856,-5.97667 12.787454,-10.900493 12.839105,-10.941829 0.05165,-0.04133 1.223829,-3.110324 2.604839,-6.81998 1.73289,-4.65487 2.737623,-6.986199 3.242528,-7.523799 1.292483,-1.376175 1.976921,-1.513274 7.596089,-1.521558 l 5.146688,-0.0076 2.582089,-2.194462 c 2.585297,-2.197187 3.021703,-2.69909 2.741326,-3.15275 -0.08254,-0.133556 -2.374294,-0.242829 -5.092785,-0.242829 h -4.942708 l -0.780213,-0.780213 c -0.962822,-0.962822 -1.006532,-1.953798 -0.125058,-2.835273 0.650462,-0.650462 0.692156,-0.655154 5.821117,-0.655154 3.835423,0 5.289016,-0.08999 5.64374,-0.349361 0.349885,-0.255843 0.64407,-1.300784 1.098997,-3.903625 0.523456,-2.994926 0.742814,-3.706534 1.393891,-4.52184 1.982911,-2.483087 5.390806,-2.575044 7.474635,-0.201693 0.900046,1.025096 1.079162,1.503982 1.19639,3.19868 l 0.07114,1.028497 13.695781,-11.705121 C 83.038543,6.3573896 89.487378,0.97934822 89.8366,0.84399011 90.657511,0.52581515 91.360845,1.0754765 91.250966,1.9493261 91.191653,2.4209468 87.240208,5.9434782 76.099361,15.456219 l -15.071387,12.868883 -1.263621,7.602244 c -0.694991,4.181234 -1.450971,7.998968 -1.679955,8.483853 -0.276954,0.58646 -0.7953,1.05363 -1.548303,1.395441 -1.032228,0.46856 -1.809074,0.514351 -8.816584,0.519696 -7.544858,0.0057 -7.699465,0.01679 -8.501001,0.606421 l -0.816385,0.60056 1.418695,0.133457 1.418695,0.133457 0.476814,2.097536 c 0.984234,4.329721 3.959687,8.18557 7.72232,10.007253 3.011271,1.457909 1.990108,2.009408 11.837611,-6.393142 4.844508,-4.133661 8.843879,-7.607233 8.88749,-7.719049 0.04361,-0.111818 -0.108613,-1.013517 -0.338267,-2.00378 -0.862704,-3.719909 -3.298929,-7.077502 -6.6309,-9.138676 -1.244858,-0.770075 -1.525652,-1.068977 -1.420459,-1.512055 0.07211,-0.303734 0.213965,-1.126371 0.31523,-1.828079 0.165146,-1.144385 0.242746,-1.258187 0.753171,-1.104552 1.876741,0.56489 5.262164,3.101802 7.094625,5.316452 1.267201,1.531496 3.113868,5.051865 3.3721,6.428361 0.09647,0.514267 0.270929,0.899778 0.387673,0.856688 0.116743,-0.04309 5.625684,-4.702646 12.242092,-10.354573 6.616406,-5.651926 12.25694,-10.312649 12.534506,-10.357163 0.561505,-0.09005 1.371965,0.58846 1.371965,1.148593 0,0.507801 0.430604,0.124349 -13.388984,11.923116 L 73.954724,45.840819 v 1.804484 c 0,0.992467 -0.23686,2.730598 -0.526356,3.862518 -2.208469,8.635032 -11.104714,14.771766 -19.671519,13.569644 l -2.053089,-0.288096 -1.725366,1.514746 -1.725366,1.514746 17.65532,0.06864 17.655319,0.06862 v 3.601449 3.601447 H 61.587563 39.611452 L 26.288043,86.542015 C 8.7148364,101.55583 10.051509,100.54331 9.2724624,99.431064 Z M 46.615057,66.036777 c 1.237309,-1.053567 2.243192,-1.984432 2.235295,-2.068591 -0.0078,-0.08416 -0.70072,-0.488095 -1.539608,-0.897638 -4.483086,-2.18863 -8.298843,-7.269669 -9.305892,-12.391669 -0.47057,-2.393383 -0.439958,-2.378646 -2.024108,-0.974416 -1.217332,1.079072 -1.108503,0.848896 -3.642853,7.704746 -2.505448,6.777663 -2.891535,7.340164 -5.038122,7.340164 -2.217779,0 -3.443695,-1.46351 -3.16897,-3.783142 l 0.152247,-1.285481 -3.7908,3.239019 c -2.084941,1.78146 -4.26284,3.642571 -4.839777,4.135802 l -1.048976,0.896783 h 14.880954 14.880955 z m 13.547522,-5.34911 c 3.618888,-1.10432 6.947284,-4.005574 8.6086,-7.503834 0.51322,-1.080695 1.008019,-2.426409 1.099554,-2.990471 l 0.166427,-1.025572 -3.713161,3.177133 c -8.833742,7.558513 -10.519496,9.017057 -10.519496,9.101651 0,0.217676 2.696635,-0.25191 4.358076,-0.758907 z M 49.165673,38.658425 c 0.332008,-0.423342 0.322567,-0.432782 -0.100774,-0.100774 -0.444613,0.348691 -0.586006,0.567877 -0.366326,0.567877 0.05543,0 0.265621,-0.210197 0.467101,-0.467102 z m 2.986402,-22.739417 c -1.946529,-0.883754 -3.05442,-3.244738 -2.495901,-5.318921 0.589899,-2.190718 2.29433,-3.5043685 4.546839,-3.5043685 2.252508,0 3.956939,1.3136505 4.546838,3.5043685 0.766134,2.845202 -1.560173,5.825935 -4.546838,5.825935 -0.513812,0 -1.436733,-0.228156 -2.050938,-0.507014 z"
       id="path1" /></g></svg>
