<?xml version="1.0" encoding="UTF-8" standalone="no"?>
<!-- Created with Inkscape (http://www.inkscape.org/) -->

<svg
   width="100mm"
   height="100mm"
   viewBox="0 0 100 100"
   version="1.1"
   id="svg1"
   xml:space="preserve"
   sodipodi:docname="elevator.svg"
   inkscape:version="1.4 (e7c3feb1, 2024-10-09)"
   xmlns:inkscape="http://www.inkscape.org/namespaces/inkscape"
   xmlns:sodipodi="http://sodipodi.sourceforge.net/DTD/sodipodi-0.dtd"
   xmlns="http://www.w3.org/2000/svg"
   xmlns:svg="http://www.w3.org/2000/svg"><sodipodi:namedview
     id="namedview1"
     pagecolor="#ffffff"
     bordercolor="#000000"
     borderopacity="0.25"
     inkscape:showpageshadow="2"
     inkscape:pageopacity="0.0"
     inkscape:pagecheckerboard="0"
     inkscape:deskcolor="#d1d1d1"
     inkscape:document-units="mm"
     inkscape:zoom="0.59912098"
     inkscape:cx="105.98861"
     inkscape:cy="147.71641"
     inkscape:window-width="1904"
     inkscape:window-height="1012"
     inkscape:window-x="8"
     inkscape:window-y="25"
     inkscape:window-maximized="0"
     inkscape:current-layer="layer1" /><defs
     id="defs1" /><g
     inkscape:label="Layer 1"
     inkscape:groupmode="layer"
     id="layer1"><path
       style="fill:#ffffff;stroke-width:0.450878"
       d="m 46.485172,96.303712 -3.489371,-3.760427 v -3.279581 -3.279593 l 0.932481,0.992096 c 0.512864,0.545661 1.599938,1.708821 2.415718,2.584788 l 1.483238,1.592682 0.0315,-3.769805 0.0315,-3.769804 h 2.14563 2.14563 l 0.01579,1.938534 c 0.0087,1.066202 0.04894,2.759859 0.08947,3.763713 l 0.07368,1.825157 2.314182,-2.481292 c 1.2728,-1.364695 2.359873,-2.499174 2.415718,-2.521053 0.05584,-0.02184 0.101532,1.405984 0.101532,3.173017 v 3.212757 l -3.48937,3.766093 c -1.919155,2.071365 -3.543055,3.767686 -3.608667,3.769616 -0.06561,0.002 -1.689512,-1.688665 -3.608665,-3.756898 z M 2.4355891,50.211539 V 2.6129428 h 5.9050899 5.90509 V 50.211539 97.810136 H 8.340679 2.4355891 Z m 83.5063179,0 V 2.6129428 h 5.905088 5.905091 V 50.211539 97.810136 h -5.905091 -5.905088 z m -61.257849,30.3729 c -0.825184,-0.26289 -1.511378,-0.674104 -2.179844,-1.306308 -0.759381,-0.7182 -1.162904,-1.364793 -1.472484,-2.359476 -0.217247,-0.698013 -0.22475,-1.591743 -0.22475,-26.766768 0,-25.226412 0.0071,-26.06745 0.226012,-26.770811 0.561779,-1.805003 1.996827,-3.162665 3.87014,-3.66144 0.903578,-0.240581 49.463197,-0.244862 50.361896,-0.0044 1.87933,0.502764 3.256631,1.792339 3.867796,3.621443 l 0.247871,0.741827 v 26.059013 c 0,25.189131 -0.0074,26.083144 -0.22475,26.781158 -0.123613,0.397163 -0.360021,0.952956 -0.525359,1.235073 -0.451797,0.77093 -1.532757,1.725939 -2.440005,2.155691 l -0.80626,0.381923 -25.111541,0.02249 c -20.065126,0.01801 -25.207437,-0.0076 -25.588722,-0.129469 z m 48.507343,-4.249274 c 0.661402,-0.183707 1.208076,-0.609026 1.536799,-1.195639 l 0.298238,-0.532211 V 50.151887 25.696472 L 74.736977,25.19111 C 74.577778,24.91316 74.233434,24.537381 73.97177,24.356047 l -0.475743,-0.329702 -23.282066,-0.03071 -23.282066,-0.03071 -0.527444,0.278563 c -0.347024,0.183275 -0.649866,0.476228 -0.885329,0.856418 l -0.357885,0.577857 v 24.46478 24.464773 l 0.298237,0.52625 c 0.164031,0.289442 0.435548,0.62775 0.603372,0.751771 0.793363,0.58634 -0.312749,0.560258 23.971345,0.565138 14.872342,0.0033 22.874784,-0.03679 23.15721,-0.115309 z m -32.22361,-1.984376 c -0.243542,-0.09727 -0.824428,-0.644279 -0.994448,-0.936428 -0.103103,-0.177156 -0.154209,-4.676843 -0.1985,-17.476676 -0.0593,-17.138675 -0.06102,-17.238089 -0.298236,-17.238089 -0.235277,0 -0.239419,0.09935 -0.298237,7.157687 -0.03281,3.936721 -0.104414,7.2484 -0.159136,7.359288 -0.295857,0.59955 -1.374742,0.810179 -1.952509,0.381202 -0.655252,-0.486533 -0.635296,-0.190727 -0.602717,-8.933443 l 0.03023,-8.112041 0.320795,-0.684356 c 0.587048,-1.252366 1.782947,-2.184535 3.189611,-2.486215 0.362106,-0.07773 2.065592,-0.110091 4.500841,-0.08559 3.764872,0.03767 3.945057,0.05 4.603773,0.314115 0.904588,0.362687 1.896466,1.278797 2.321368,2.144054 l 0.333338,0.678799 0.03305,8.169041 c 0.02371,5.861619 -0.005,8.26079 -0.101531,8.49392 -0.364371,0.879668 -1.62297,0.999846 -2.317404,0.221262 -0.231513,-0.25956 -0.240362,-0.480354 -0.29824,-7.440971 -0.05561,-6.688643 -0.07365,-7.176159 -0.266828,-7.213322 -0.195823,-0.03777 -0.208904,0.90408 -0.23859,17.176842 -0.03124,17.124558 -0.03272,17.218939 -0.276447,17.633832 -0.739568,1.258949 -2.419564,1.300009 -3.322835,0.08112 -0.247568,-0.33405 -0.250055,-0.419707 -0.311783,-10.736536 -0.03423,-5.719878 -0.07449,-10.406951 -0.08947,-10.415695 -0.242002,-0.141315 -0.562076,-0.105353 -0.751869,0.08439 -0.223185,0.223195 -0.229735,0.519209 -0.229735,10.38159 0,11.214739 0.03677,10.666064 -0.752498,11.228058 -0.365965,0.260598 -1.477945,0.411564 -1.871986,0.254157 z m 24.395773,-25.9873 c -0.0656,-0.02194 -0.265938,-0.07205 -0.445167,-0.111609 -0.43871,-0.09662 -1.127147,-0.718811 -1.41093,-1.275074 -0.902884,-1.769795 0.800124,-3.913739 2.739303,-3.448528 1.976748,0.474208 2.580815,2.984267 1.026518,4.265443 -0.534925,0.440932 -1.464523,0.718277 -1.909724,0.569768 z M 64.647795,41.3048 c -0.881846,-0.464894 -1.364888,-1.254931 -1.369269,-2.239471 -0.0094,-2.098059 2.488388,-3.19697 4.053191,-1.783267 1.246934,1.126532 1.033241,3.125166 -0.422283,3.94957 -0.575423,0.325928 -1.712426,0.362697 -2.261639,0.07315 z m 0.23859,-6.745512 c -1.494045,-0.522254 -2.096698,-2.40083 -1.18529,-3.69478 0.521783,-0.740788 1.241966,-1.08188 2.167019,-1.026343 1.232113,0.07402 2.100666,0.886491 2.266103,2.119893 0.236977,1.766782 -1.547147,3.195715 -3.247832,2.60123 z M 42.816859,32.155292 c -1.13198,-0.529461 -1.968363,-1.803901 -1.968363,-2.999267 0,-1.344127 1.042133,-2.733494 2.331459,-3.108315 0.904673,-0.262996 1.768462,-0.173791 2.577312,0.266171 2.037299,1.108136 2.233476,4.061997 0.364452,5.487557 -0.923397,0.704291 -2.251607,0.846511 -3.30486,0.353854 z m 5.041878,-19.218284 -0.0315,-3.7527116 -2.378201,2.5597646 c -1.308011,1.407871 -2.395085,2.559765 -2.415718,2.559765 -0.02063,0 -0.03727,-1.462852 -0.03697,-3.250781 l 5.41e-4,-3.2507811 3.535772,-3.7983113 3.535772,-3.79831227 0.394678,0.3984113 c 0.217071,0.2191261 1.818658,1.92836777 3.559078,3.79831237 l 3.164401,3.3998999 -0.0022,3.2806041 -0.0022,3.280605 -0.979421,-1.044724 C 55.664218,12.74415 54.579286,11.586538 53.79194,10.746278 l -1.431536,-1.5277458 -0.07331,1.8567018 c -0.04032,1.021187 -0.08058,2.702204 -0.08947,3.735595 l -0.01616,1.878891 h -2.145631 -2.145629 z"
       id="path1" /></g></svg>
