<?xml version="1.0" encoding="UTF-8" standalone="no"?>
<!-- Created with Inkscape (http://www.inkscape.org/) -->

<svg
   width="100mm"
   height="100mm"
   viewBox="0 0 100 100"
   version="1.1"
   id="svg1"
   xml:space="preserve"
   sodipodi:docname="escalator.svg"
   inkscape:version="1.4 (e7c3feb1, 2024-10-09)"
   xmlns:inkscape="http://www.inkscape.org/namespaces/inkscape"
   xmlns:sodipodi="http://sodipodi.sourceforge.net/DTD/sodipodi-0.dtd"
   xmlns="http://www.w3.org/2000/svg"
   xmlns:svg="http://www.w3.org/2000/svg"><sodipodi:namedview
     id="namedview1"
     pagecolor="#ffffff"
     bordercolor="#000000"
     borderopacity="0.25"
     inkscape:showpageshadow="2"
     inkscape:pageopacity="0.0"
     inkscape:pagecheckerboard="0"
     inkscape:deskcolor="#d1d1d1"
     inkscape:document-units="mm"
     inkscape:zoom="1.2300208"
     inkscape:cx="188.2082"
     inkscape:cy="176.82628"
     inkscape:window-width="1904"
     inkscape:window-height="1012"
     inkscape:window-x="8"
     inkscape:window-y="25"
     inkscape:window-maximized="0"
     inkscape:current-layer="layer1" /><defs
     id="defs1" /><g
     inkscape:label="Layer 1"
     inkscape:groupmode="layer"
     id="layer1"><path
       style="fill:#ffffff;stroke-width:0.581804"
       d="M 11.620844,86.890347 C 5.2583269,86.164809 0.46408134,81.283484 0.0525419,75.111913 -0.29603867,69.884494 2.9046416,64.731726 7.714202,62.777427 c 2.0037981,-0.814216 2.403614,-0.866769 7.370196,-0.968749 l 4.695039,-0.0964 0.923613,-0.441305 c 0.787208,-0.376129 1.746585,-1.260381 6.495974,-5.987297 l 5.57236,-5.545994 0.04988,-9.094782 c 0.04903,-8.940005 0.05574,-9.112202 0.394075,-10.118443 1.536501,-4.569707 6.580456,-6.660769 10.849091,-4.497689 0.442547,0.224257 1.261461,0.865591 1.819808,1.425188 1.580826,1.584368 2.296327,3.378132 2.296327,5.756903 v 1.106812 l 9.736433,-9.721021 c 10.27363,-10.25737 10.605498,-10.551921 12.86988,-11.422742 2.054262,-0.790015 2.389499,-0.813187 10.951666,-0.756971 7.80798,0.05127 7.943959,0.05744 9.00523,0.408877 7.677955,2.542534 11.266286,10.280407 8.06538,17.392195 -0.939812,2.088078 -3.004002,4.362455 -5.036819,5.549685 -0.590366,0.34479 -1.721114,0.849525 -2.512781,1.121636 l -1.43939,0.494744 -4.618071,0.09659 c -4.899145,0.102471 -5.290967,0.159584 -6.436982,0.938258 C 78.495547,38.60008 67.98824,49.017823 55.415545,61.567459 42.842848,74.117097 32.225644,84.60611 31.821756,84.876365 c -1.066114,0.713403 -2.477609,1.340928 -3.883728,1.726667 -1.173301,0.321855 -1.562415,0.339523 -8.23556,0.374006 -3.85224,0.01992 -7.48897,-0.01913 -8.081624,-0.08672 z M 26.517171,80.9662 C 28.863027,80.469098 27.306324,81.920172 52.875606,56.396336 77.778508,31.537698 76.732709,32.52472 78.736798,31.98858 c 0.542608,-0.145159 1.905035,-0.207345 4.61807,-0.210782 4.422404,-0.0056 5.62383,-0.137707 6.969257,-0.766306 2.576771,-1.203895 4.214423,-4.281481 3.754667,-7.056037 -0.480748,-2.901201 -2.854934,-5.241742 -5.807569,-5.725251 -1.234314,-0.202126 -13.11127,-0.192705 -14.383396,0.01141 -0.550322,0.0883 -1.48548,0.37692 -2.078135,0.641378 -1.052583,0.469695 -1.621395,1.023389 -24.552738,23.900239 -18.62362,18.579363 -23.645398,23.50865 -24.298775,23.851234 -1.573995,0.82529 -2.041638,0.889239 -7.258038,0.992526 l -4.848973,0.09601 -1.0403797,0.492818 c -1.9051394,0.902446 -3.3480904,2.660426 -3.8088442,4.640402 -0.109146,0.469026 -0.161347,1.344296 -0.1213654,2.034958 0.057957,1.001138 0.1685887,1.411097 0.6360741,2.356988 0.9390951,1.900134 2.9756478,3.446601 4.9833592,3.784153 0.405117,0.06808 3.715231,0.130786 7.35581,0.139272 5.209589,0.01216 6.841166,-0.03159 7.661349,-0.205391 z M 39.098363,23.418722 c -1.707225,-0.494098 -3.04265,-1.540086 -3.808206,-2.982825 -1.313397,-2.475184 -0.912679,-5.033328 1.106792,-7.065662 1.944143,-1.956526 4.732783,-2.293596 7.164857,-0.866034 3.467157,2.035127 3.923464,6.698507 0.926904,9.472793 -1.455888,1.347896 -3.669157,1.939867 -5.390347,1.441728 z"
       id="path1" /></g></svg>
