<?xml version="1.0" encoding="UTF-8" standalone="no"?>
<!-- Created with Inkscape (http://www.inkscape.org/) -->

<svg
   width="100mm"
   height="100mm"
   viewBox="0 0 100 100"
   version="1.1"
   id="svg1"
   xml:space="preserve"
   sodipodi:docname="toilet.svg"
   inkscape:version="1.4 (e7c3feb1, 2024-10-09)"
   xmlns:inkscape="http://www.inkscape.org/namespaces/inkscape"
   xmlns:sodipodi="http://sodipodi.sourceforge.net/DTD/sodipodi-0.dtd"
   xmlns="http://www.w3.org/2000/svg"
   xmlns:svg="http://www.w3.org/2000/svg"><sodipodi:namedview
     id="namedview1"
     pagecolor="#ffffff"
     bordercolor="#000000"
     borderopacity="0.25"
     inkscape:showpageshadow="2"
     inkscape:pageopacity="0.0"
     inkscape:pagecheckerboard="0"
     inkscape:deskcolor="#d1d1d1"
     inkscape:document-units="mm"
     inkscape:zoom="1.2300208"
     inkscape:cx="187.39521"
     inkscape:cy="176.82628"
     inkscape:window-width="1904"
     inkscape:window-height="1012"
     inkscape:window-x="8"
     inkscape:window-y="25"
     inkscape:window-maximized="0"
     inkscape:current-layer="layer1" /><defs
     id="defs1" /><g
     inkscape:label="Layer 1"
     inkscape:groupmode="layer"
     id="layer1"><path
       style="fill:#ffffff;stroke-width:1.02899"
       d="m 12.327523,99.397867 c -1.903071,-1.252436 -1.769652,1.544183 -1.769652,-37.093781 0,-23.008307 -0.09216,-34.784712 -0.272254,-34.784712 -0.14974,0 -0.3641393,-0.03063 -0.4764443,-0.06806 C 9.6968678,27.413877 9.543725,33.978523 9.4688541,42.039417 9.3327275,56.695582 9.3327275,56.695582 8.4436072,57.489834 7.2420087,58.563222 5.9781637,58.563132 4.7767686,57.489573 3.4760919,56.327303 3.3555156,24.383014 4.6419182,21.76351 6.851052,17.265047 8.3271626,16.765335 19.406129,16.765335 c 11.184348,0 12.314114,0.352079 14.588271,4.546268 1.476925,2.723864 1.610061,34.577442 0.15062,36.036881 -1.233215,1.233215 -2.500993,1.280658 -3.776366,0.141321 -0.889121,-0.794286 -0.889121,-0.794286 -0.959595,-15.178168 -0.07396,-15.09437 -0.0864,-15.339925 -0.74951,-14.78959 -0.354828,0.29448 -0.405286,4.65282 -0.406178,35.083381 -9.94e-4,33.982438 -0.01272,34.766313 -0.532469,35.618741 -1.466769,2.405581 -5.365921,2.262601 -6.736094,-0.246999 -0.457298,-0.83759 -0.494593,-2.267076 -0.564271,-21.628339 -0.0801,-22.257409 -0.06202,-21.979832 -1.377546,-21.1503 -0.414961,0.261663 -0.465225,2.071263 -0.58975,21.232217 -0.127363,19.597685 -0.167752,20.994429 -0.627365,21.695686 -1.148635,1.752549 -3.826407,2.371756 -5.498353,1.271433 z m 35.12645,-0.109116 c -1.00534,-1.005336 -0.982598,0.256342 -0.900269,-49.943336 0.07785,-47.4626338 0.07785,-47.4626338 0.96696,-48.257047 1.363088,-1.2178932 3.378807,-0.87556582 4.094576,0.6953772 0.248239,0.5448258 0.325259,12.0621388 0.325259,48.6387238 0,47.924856 0,47.924856 -0.795821,48.720678 -1.049841,1.049843 -2.720555,1.115753 -3.690705,0.145604 z m 24.409987,-0.03107 c -1.591718,-1.339336 -1.535596,-0.812637 -1.682433,-15.790112 -0.136126,-13.88496 -0.136126,-13.88496 -4.39642,-13.959798 -3.350059,-0.05885 -4.331315,-0.160422 -4.592741,-0.475421 -0.271448,-0.327074 0.660242,-2.78643 5.077047,-13.401742 5.409513,-13.001158 5.409513,-13.001158 5.490114,-20.464329 0.07985,-7.397015 -0.0093,-8.247532 -0.81631,-7.749029 -0.119445,0.07384 -0.217189,3.375574 -0.217189,7.337219 0,7.202987 0,7.202987 -2.16927,12.439558 -1.437522,3.470152 -2.406935,5.443205 -2.87385,5.849144 -1.649701,1.434274 -4.485769,0.226888 -4.485769,-1.909706 0,-0.538558 0.772599,-2.755378 1.833831,-5.261833 1.833827,-4.331199 1.833827,-4.331199 1.973843,-13.451712 0.159627,-10.398198 0.273752,-10.925115 2.888359,-13.335175 2.259389,-2.08263 5.811212,-3.077472 7.000006,-1.960657 2.009703,1.888018 6.068696,1.907958 8.441265,0.04147 2.063889,-1.623653 7.115561,0.842379 8.815013,4.303147 0.765293,1.558449 0.765293,1.558449 0.911522,10.678963 0.146241,9.120513 0.146241,9.120513 2.138843,13.864355 2.505232,5.964265 2.287555,7.656875 -0.982286,7.637667 -1.695583,-0.0099 -2.103579,-0.571982 -4.438712,-6.114506 -2.173036,-5.157798 -2.173036,-5.157798 -2.173036,-12.417354 0,-5.740959 -0.07645,-7.322987 -0.365363,-7.562783 -0.669349,-0.555508 -0.723649,0.0097 -0.723649,7.532422 0,7.477369 0,7.477369 5.319312,20.303012 2.92562,7.054102 5.284021,13.071844 5.240892,13.372759 -0.07426,0.518668 -0.307852,0.551003 -4.49088,0.621868 -4.412451,0.07475 -4.412451,0.07475 -4.492188,13.884961 -0.07326,12.690569 -0.119436,13.882923 -0.569404,14.707075 -1.370174,2.509606 -5.269324,2.652586 -6.736089,0.246999 -0.508199,-0.833474 -0.531496,-1.462352 -0.532473,-14.374058 -10e-4,-14.872894 -0.01533,-14.997903 -1.611895,-14.143469 -0.562859,0.301234 -0.567161,0.404611 -0.567161,13.64315 0,14.40671 3.61e-4,14.402892 -1.466035,15.755318 -1.144702,1.055726 -3.580531,1.134026 -4.746894,0.152597 z M 17.424607,14.595546 C 10.291229,12.368045 11.931659,1.6552288 19.406129,1.6552288 c 7.556336,0 9.159737,10.7812942 1.924428,12.9398942 -1.611698,0.48084 -2.367197,0.480921 -3.90595,4.23e-4 z m 59.473459,-0.02669 c -2.790965,-0.889544 -4.84081,-4.169442 -4.438803,-7.1023947 0.84084,-6.134644 9.027079,-7.9570139 12.259266,-2.729081 3.257234,5.2684567 -1.878794,11.7252127 -7.820463,9.8314757 z"
       id="path3" /></g></svg>
