<?xml version="1.0" encoding="UTF-8" standalone="no"?>
<!-- Created with Inkscape (http://www.inkscape.org/) -->

<svg
   width="100mm"
   height="100mm"
   viewBox="0 0 100 100"
   version="1.1"
   id="svg1"
   xml:space="preserve"
   sodipodi:docname="accessible-toilet.svg"
   inkscape:version="1.4 (e7c3feb1, 2024-10-09)"
   xmlns:inkscape="http://www.inkscape.org/namespaces/inkscape"
   xmlns:sodipodi="http://sodipodi.sourceforge.net/DTD/sodipodi-0.dtd"
   xmlns="http://www.w3.org/2000/svg"
   xmlns:svg="http://www.w3.org/2000/svg"><sodipodi:namedview
     id="namedview1"
     pagecolor="#ffffff"
     bordercolor="#000000"
     borderopacity="0.25"
     inkscape:showpageshadow="2"
     inkscape:pageopacity="0.0"
     inkscape:pagecheckerboard="0"
     inkscape:deskcolor="#d1d1d1"
     inkscape:document-units="mm"
     inkscape:zoom="1.0845709"
     inkscape:cx="-15.21339"
     inkscape:cy="171.03539"
     inkscape:window-width="1904"
     inkscape:window-height="1012"
     inkscape:window-x="8"
     inkscape:window-y="25"
     inkscape:window-maximized="0"
     inkscape:current-layer="layer1" /><defs
     id="defs1" /><g
     inkscape:label="Layer 1"
     inkscape:groupmode="layer"
     id="layer1"><path
       style="fill:#ffffff;stroke-width:1.28304"
       d="m 76.57782,99.796785 c -6.148717,-0.756256 -11.565888,-3.94381 -15.09442,-8.88181 -0.999102,-1.398191 -2.323121,-4.026222 -2.851717,-5.660343 -0.508444,-1.571821 -0.896111,-3.571641 -0.924763,-4.770505 -0.02197,-0.91899 -0.02197,-0.91899 2.144437,-0.91899 2.166401,0 2.166401,0 2.435199,1.589119 0.675334,3.992529 2.177995,6.873284 5.006269,9.597525 2.365913,2.278887 5.324549,3.77454 8.755288,4.42598 1.239193,0.235303 4.46302,0.204955 5.767916,-0.0543 2.399189,-0.47666 4.594562,-1.388322 6.533047,-2.712948 1.288051,-0.880163 3.461698,-3.091845 4.340264,-4.41621 1.270942,-1.915838 2.066991,-3.821218 2.56879,-6.148519 0.165433,-0.76726 0.21136,-1.494694 0.207162,-3.281207 -0.0049,-2.058677 -0.03749,-2.431659 -0.316597,-3.616716 C 94.03107,70.202583 91.049829,66.2663 86.818812,63.9495 c -0.615048,-0.336785 -1.13978,-0.6287 -1.166071,-0.6487 -0.04686,-0.03564 0.536852,-3.78319 0.652346,-4.188221 0.0928,-0.325448 0.370962,-0.252528 1.872459,0.49086 9.520737,4.713702 14.109954,15.590586 10.818053,25.639854 -2.104592,6.42475 -7.319396,11.576996 -13.827437,13.661559 -2.03746,0.65261 -3.467925,0.871399 -5.94181,0.908796 -1.230096,0.01859 -2.421935,0.01103 -2.648532,-0.01686 z M 44.669401,99.363438 c -1.202802,-0.339912 -2.150164,-1.168182 -2.647377,-2.314579 -0.168573,-0.388669 -0.224889,-0.773449 -0.215356,-1.471406 0.01286,-0.940893 0.03105,-0.993775 4.077966,-11.853396 2.235782,-5.999559 4.21151,-11.177371 4.390508,-11.506249 0.389823,-0.716235 1.456377,-1.763651 2.162902,-2.124093 1.282989,-0.654531 0.950284,-0.631068 9.966892,-0.702898 6.558874,-0.05224 8.408406,-0.09935 8.550925,-0.217716 0.306363,-0.25446 0.42225,-0.699285 0.846853,-3.250596 0.378108,-2.271934 0.399137,-2.67935 0.150746,-2.920535 -0.01391,-0.0135 -2.651298,-0.05323 -5.86087,-0.08829 -5.835583,-0.06373 -5.835583,-0.06373 -6.320544,-0.384805 -1.107398,-0.733169 -1.479717,-2.28328 -0.819149,-3.410454 0.312949,-0.534006 0.679956,-0.849825 1.30582,-1.123692 0.255469,-0.111791 1.758968,-0.147564 6.201674,-0.147564 3.442096,0 5.986628,-0.04645 6.16024,-0.112459 0.162683,-0.06186 0.378212,-0.238254 0.478952,-0.392003 0.107378,-0.163875 0.449785,-1.849387 0.827513,-4.073423 0.550022,-3.238498 0.69928,-3.909155 1.019593,-4.581352 0.440819,-0.925088 1.505226,-2.040768 2.405075,-2.520934 2.873655,-1.533401 6.450814,-0.381351 7.872911,2.535529 0.441124,0.904791 0.708945,2.199046 0.60032,2.901053 -0.03548,0.22925 -0.913376,5.528484 -1.950896,11.776078 -1.716657,10.337129 -1.918345,11.424904 -2.241413,12.088769 -0.394666,0.810985 -1.10091,1.505923 -1.968872,1.937352 -0.555173,0.275954 -0.555173,0.275954 -11.620155,0.334811 -8.069178,0.04292 -11.129077,0.09574 -11.301722,0.195094 -0.130208,0.07493 -0.3296,0.238845 -0.443095,0.364255 -0.113498,0.125404 -1.768353,4.42973 -3.677465,9.565159 -1.909112,5.135428 -3.602721,9.561711 -3.763572,9.836185 -0.770068,1.314022 -2.704219,2.081583 -4.188404,1.662152 z M 6.3311559,59.968161 C 5.7203946,59.823781 5.0357915,59.30168 4.7460582,58.759311 4.4788796,58.259165 4.4788796,58.259165 4.4481661,37.449283 4.4202791,18.554535 4.4002277,16.632792 4.2302884,16.56758 4.1273498,16.52808 3.9963111,16.56968 3.939095,16.66005 3.881384,16.7512 3.8342575,20.617507 3.8332567,25.344609 c -0.0018,8.335394 -0.00693,8.528597 -0.2390838,8.904195 C 3.1674143,34.939314 2.1038384,35.219281 1.362925,34.836139 1.1770183,34.740001 0.90155243,34.488393 0.7507793,34.277005 0.47664528,33.892663 0.47664528,33.892663 0.4444755,24.487648 0.42392113,18.479108 0.45550968,14.844497 0.53201763,14.423225 0.9111496,12.334989 2.5695245,10.621515 4.6318005,10.18723 c 0.852868,-0.179602 9.5593285,-0.178683 10.4059735,0.0011 2.067207,0.438961 3.75776,2.210301 4.099169,4.295057 0.06606,0.403447 0.11269,4.529135 0.111587,9.87456 -0.0018,8.800306 -0.01129,9.202254 -0.2279,9.679427 -0.56597,1.246776 -2.379891,1.311721 -3.038211,0.108777 -0.185532,-0.33902 -0.208246,-1.116162 -0.261999,-8.964218 -0.0516,-7.533603 -0.08063,-8.593017 -0.235426,-8.593017 -0.156063,0 -0.183403,2.419648 -0.235424,20.835124 -0.05885,20.835122 -0.05885,20.835122 -0.385695,21.391128 -0.905445,1.540312 -2.979437,1.597398 -4.023299,0.110739 -0.358364,-0.510378 -0.358364,-0.510378 -0.389909,-12.94145 -0.02873,-11.319458 -0.04878,-12.450113 -0.224242,-12.643999 -0.237132,-0.26203 -0.5501372,-0.273031 -0.7952179,-0.02795 -0.1657848,0.165784 -0.1849765,1.452485 -0.1849765,12.40111 0,8.819472 -0.037247,12.327387 -0.1339691,12.616263 -0.3936535,1.175742 -1.6376948,1.908573 -2.7811133,1.638277 z m 20.8830261,-0.0055 c -0.184997,-0.05544 -0.44203,-0.196429 -0.571185,-0.313313 -0.59785,-0.541047 -0.563864,1.239035 -0.563864,-29.533188 0,-28.553704 0.0011,-28.686136 0.23728,-29.0683152 0.611821,-0.98994591 2.11233,-1.00141248 2.710299,-0.020708 0.226242,0.3710488 0.229786,0.8203479 0.23022,29.1829022 4.4e-4,28.806053 4.4e-4,28.806053 -0.362382,29.219283 -0.203531,0.231811 -0.552367,0.465878 -0.794559,0.533146 -0.487046,0.135277 -0.435084,0.135265 -0.885809,1.95e-4 z m 15.050428,0.06318 c -0.06474,-0.02159 -0.264718,-0.07174 -0.444391,-0.111407 -0.428782,-0.09469 -1.256605,-0.849097 -1.457005,-1.327794 -0.127752,-0.305162 -0.158574,-1.953624 -0.158574,-8.481189 0,-6.14492 -0.03413,-8.136531 -0.141255,-8.24366 -0.100783,-0.100784 -0.84043,-0.141255 -2.581269,-0.141255 -2.061243,0 -2.468727,-0.02871 -2.62499,-0.184977 -0.101732,-0.101733 -0.184976,-0.261014 -0.184976,-0.353949 0,-0.09293 1.443449,-3.624942 3.207666,-7.848904 3.207668,-7.679934 3.207668,-7.679934 3.207668,-12.211867 0,-4.453459 -0.0041,-4.531934 -0.235426,-4.531934 -0.230213,0 -0.236788,0.09902 -0.297055,4.473077 -0.06162,4.473077 -0.06162,4.473077 -1.334653,7.474748 -0.700161,1.650918 -1.360921,3.099792 -1.468355,3.219718 -0.772449,0.862278 -2.296908,0.668753 -2.785026,-0.35355 -0.327456,-0.685815 -0.224751,-1.104305 0.970591,-3.954875 1.147698,-2.736952 1.147698,-2.736952 1.206553,-8.092873 0.05885,-5.355921 0.05885,-5.355921 0.437309,-6.154907 0.695734,-1.468828 2.000788,-2.570797 3.510177,-2.963942 0.974676,-0.253871 1.439101,-0.229793 1.868174,0.09686 1.505117,1.145823 3.550055,1.201041 4.948453,0.133619 0.587533,-0.448474 0.858611,-0.4893317 1.854765,-0.279556 1.794331,0.377859 3.258895,1.668422 3.925221,3.458872 0.197575,0.530895 0.225339,1.107585 0.283345,5.885628 0.06431,5.297065 0.06431,5.297065 1.224315,8.057663 0.978677,2.329064 1.150539,2.831183 1.099441,3.212152 -0.130984,0.976555 -0.834351,1.542169 -1.826446,1.468739 -1.015165,-0.07513 -1.202403,-0.348147 -2.657405,-3.874715 -1.248118,-3.025129 -1.248118,-3.025129 -1.249919,-7.298178 -9.92e-4,-2.350177 -0.04861,-4.346982 -0.105838,-4.437343 -0.05721,-0.09036 -0.188832,-0.131752 -0.292479,-0.09198 -0.168173,0.06454 -0.188449,0.549171 -0.188449,4.504324 0,4.432008 0,4.432008 3.053277,11.804377 1.679301,4.054803 3.13257,7.561114 3.229486,7.7918 0.142357,0.338854 0.148765,0.474535 0.03336,0.706275 -0.142858,0.286845 -0.142858,0.286845 -2.729208,0.345702 -2.586351,0.05885 -2.586351,0.05885 -2.645207,8.376974 -0.05885,8.318118 -0.05885,8.318118 -0.417221,8.828442 -1.043937,1.486603 -3.11787,1.429489 -4.0233,-0.110791 -0.326837,-0.556006 -0.326837,-0.556006 -0.357401,-8.619316 -0.03014,-7.952283 -0.03387,-8.066065 -0.270605,-8.263405 -0.258707,-0.215654 -0.552636,-0.170379 -0.787673,0.121325 -0.114448,0.142042 -0.147141,1.943865 -0.147141,8.109497 0,8.735728 0.02724,8.396825 -0.738459,9.187954 -0.443565,0.458299 -1.47087,0.821136 -1.910073,0.674625 z M 76.768248,43.237595 c -0.740904,-0.173936 -1.797105,-0.801059 -2.356676,-1.399286 -1.88158,-2.01156 -1.759771,-4.976236 0.282129,-6.866674 0.989611,-0.916205 1.730767,-1.189318 3.237813,-1.193121 1.082494,-0.0027 1.240914,0.02723 1.970597,0.372607 1.648755,0.78041 2.679718,2.305017 2.774053,4.10232 0.06297,1.199682 -0.15447,1.999657 -0.810571,2.982176 -1.087082,1.627916 -3.183483,2.451277 -5.097345,2.001978 z M 8.8052225,8.9843796 C 7.9857714,8.7887667 6.8902297,7.9740026 6.4472996,7.2307721 5.9308639,6.3641999 5.7960698,5.8055739 5.860122,4.7973292 5.9788677,2.9280718 7.2499967,1.5087461 9.1579532,1.1149977 10.811545,0.77374249 12.668367,1.7315571 13.450873,3.3294403 c 0.281792,0.5754198 0.325342,0.8058931 0.325697,1.7236484 3.25e-4,0.8395821 -0.05269,1.174635 -0.255522,1.6146911 C 13.161411,7.4480544 12.276783,8.349297 11.518346,8.7080952 10.786665,9.054235 9.6028605,9.1747847 8.8052225,8.9843796 Z M 44.61886,9.0019958 C 43.472727,8.7161502 42.406761,7.8463935 41.889219,6.7747934 41.620471,6.218337 41.568474,5.9526005 41.563844,5.1119407 c -0.0047,-0.8572008 0.04184,-1.1017491 0.324954,-1.7068329 0.881928,-1.8848797 3.08533,-2.81375266 5.025457,-2.1185452 0.967923,0.3468364 2.116572,1.5238694 2.410235,2.4697966 0.419394,1.3509151 0.214379,2.6431373 -0.594217,3.7454073 C 47.83145,8.727033 46.079545,9.366292 44.61886,9.0019958 Z"
       id="path1" /></g></svg>
