<?xml version="1.0" encoding="UTF-8" standalone="no"?>
<!-- Created with Inkscape (http://www.inkscape.org/) -->

<svg
   width="100mm"
   height="100mm"
   viewBox="0 0 100 100"
   version="1.1"
   id="svg1"
   xml:space="preserve"
   sodipodi:docname="aed.svg"
   inkscape:version="1.4 (e7c3feb1, 2024-10-09)"
   xmlns:inkscape="http://www.inkscape.org/namespaces/inkscape"
   xmlns:sodipodi="http://sodipodi.sourceforge.net/DTD/sodipodi-0.dtd"
   xmlns="http://www.w3.org/2000/svg"
   xmlns:svg="http://www.w3.org/2000/svg"><sodipodi:namedview
     id="namedview1"
     pagecolor="#ffffff"
     bordercolor="#000000"
     borderopacity="0.25"
     inkscape:showpageshadow="2"
     inkscape:pageopacity="0.0"
     inkscape:pagecheckerboard="0"
     inkscape:deskcolor="#d1d1d1"
     inkscape:document-units="mm"
     inkscape:zoom="0.73610995"
     inkscape:cx="194.9437"
     inkscape:cy="254.71738"
     inkscape:window-width="1904"
     inkscape:window-height="1012"
     inkscape:window-x="8"
     inkscape:window-y="25"
     inkscape:window-maximized="0"
     inkscape:current-layer="layer1" /><defs
     id="defs1" /><g
     inkscape:label="Layer 1"
     inkscape:groupmode="layer"
     id="layer1"><path
       style="fill:#ffffff;stroke-width:1.63356"
       d="M 49.369183,92.596117 C 47.202069,91.012008 41.075765,87.024756 34.667253,83.027474 20.448407,74.158532 13.26285,68.083185 8.4159909,60.832167 2.6041665,52.137542 -0.21275102,42.232402 0.64540089,33.508406 1.6775822,23.015234 8.0747015,14.077879 17.022478,10.628178 c 2.336521,-0.9008167 3.84,-1.2954054 6.373295,-1.6726784 1.818257,-0.2707827 5.752412,-0.2714327 7.798854,-0.0013 7.224172,0.9536487 13.937618,4.6220014 18.142499,9.9134034 0.831522,1.046375 0.831522,1.046375 1.633337,0.02271 2.271401,-2.899792 5.854464,-5.69739 9.491207,-7.410583 5.997773,-2.8254241 13.307619,-3.5274698 19.663983,-1.8885507 10.450992,2.6946787 17.974461,11.5430047 19.436646,22.8593917 0.247956,1.919005 0.281972,6.057965 0.06616,8.049402 -0.192588,1.777114 -0.847948,5.027501 -1.401717,6.952126 -2.287623,7.950589 -7.434761,16.292333 -13.394344,21.707624 -4.605636,4.184994 -10.676582,8.554335 -19.991177,14.387932 -6.805749,4.262326 -11.044583,7.029866 -14.466275,9.444999 -0.195901,0.138199 -0.365566,0.07139 -1.005757,-0.396578 z M 54.681409,60.97218 c 10.246547,-14.211867 10.246547,-14.211867 2.942362,-14.248116 -7.304186,-0.03627 -7.304186,-0.03627 -7.222436,-0.350055 0.04497,-0.172585 1.308929,-4.690498 2.80881,-10.03981 1.499884,-5.349329 2.713663,-9.739432 2.697288,-9.755801 -0.01637,-0.01633 -4.639679,6.408103 -10.274007,14.276621 -10.244232,14.306401 -10.244232,14.306401 -2.920564,14.376416 7.323669,0.07008 7.323669,0.07008 4.473258,9.941306 -2.671652,9.252224 -2.94106,10.219568 -2.804429,10.069656 0.02924,-0.03202 4.664117,-6.453695 10.299718,-14.270217 z"
       id="path1" /></g></svg>
