<?xml version="1.0" encoding="UTF-8" standalone="no"?>
<!-- Created with Inkscape (http://www.inkscape.org/) -->

<svg
   width="100mm"
   height="100mm"
   viewBox="0 0 100 100"
   version="1.1"
   id="svg1"
   xml:space="preserve"
   sodipodi:docname="stairs.svg"
   inkscape:version="1.4 (e7c3feb1, 2024-10-09)"
   xmlns:inkscape="http://www.inkscape.org/namespaces/inkscape"
   xmlns:sodipodi="http://sodipodi.sourceforge.net/DTD/sodipodi-0.dtd"
   xmlns="http://www.w3.org/2000/svg"
   xmlns:svg="http://www.w3.org/2000/svg"><sodipodi:namedview
     id="namedview1"
     pagecolor="#ffffff"
     bordercolor="#000000"
     borderopacity="0.25"
     inkscape:showpageshadow="2"
     inkscape:pageopacity="0.0"
     inkscape:pagecheckerboard="0"
     inkscape:deskcolor="#d1d1d1"
     inkscape:document-units="mm"
     inkscape:zoom="1.4089487"
     inkscape:cx="184.17988"
     inkscape:cy="204.7626"
     inkscape:window-width="1904"
     inkscape:window-height="1012"
     inkscape:window-x="8"
     inkscape:window-y="25"
     inkscape:window-maximized="0"
     inkscape:current-layer="layer1" /><defs
     id="defs1" /><g
     inkscape:label="Layer 1"
     inkscape:groupmode="layer"
     id="layer1"><path
       style="fill:#ffffff;stroke-width:0.946897"
       d="M 0.25620932,88.350337 V 84.842869 H 8.0156703 15.775133 l 0.0697,-3.444832 0.0697,-3.444831 7.829165,-0.06619 7.829163,-0.06619 v -3.375057 -3.37506 l 7.829164,-0.06621 7.829165,-0.0662 0.06969,-3.444833 0.06969,-3.444832 h 7.759464 7.759454 v -3.507457 -3.507466 h 7.891802 7.891803 v -3.510184 -3.510185 l 10.585024,0.06535 10.585026,0.06536 0.06969,3.441253 0.06969,3.441253 -7.836211,0.06622 -7.83621,0.06622 -0.06969,3.444832 -0.06969,3.444832 h -7.759493 -7.759463 v 3.507452 3.507466 h -7.891802 -7.891793 v 3.382199 3.382197 h -7.766527 -7.766537 v 3.507469 3.507459 h -7.891793 -7.891801 v 3.507468 3.507469 H 10.903873 0.25620932 Z M 25.341429,76.050151 c -0.310011,-0.288823 -0.669489,-0.80349 -0.798841,-1.14371 -0.135272,-0.355797 -0.235185,-5.986501 -0.235185,-13.254203 0,-6.94959 -0.08456,-12.629164 -0.1879,-12.621274 -0.103345,0.0079 -1.003926,1.009991 -2.001292,2.226893 -1.120656,1.36733 -2.058448,2.274053 -2.454883,2.373552 -1.351403,0.33918 -2.865908,-1.101114 -2.536777,-2.412476 0.08891,-0.354253 1.740977,-2.539916 3.671255,-4.85703 l 3.509597,-4.212933 0.0055,-2.51634 c 0.0064,-2.927218 0.398488,-4.068791 1.828812,-5.324631 2.187417,-1.92058 5.874531,-1.151195 7.154528,1.492926 0.507584,1.048514 0.531417,1.457255 0.531417,9.110722 v 8.012958 l -2.135405,2.82056 c -1.174474,1.551309 -2.069633,2.926976 -1.989251,3.057039 0.08039,0.130063 1.915053,1.670831 4.077037,3.423927 2.161994,1.753096 4.068231,3.359475 4.236087,3.569732 0.527138,0.660274 0.381486,1.973174 -0.293813,2.648471 -1.096298,1.096305 -1.824093,0.862197 -4.825493,-1.552209 -1.481714,-1.191933 -2.864904,-2.178408 -3.073761,-2.192165 -0.324568,-0.02138 -0.397924,0.751562 -0.504999,5.321057 l -0.125265,5.34607 -0.702939,0.604093 c -0.90787,0.780215 -2.356726,0.816556 -3.148432,0.07897 z M 56.751459,62.318065 C 56.475874,62.197659 55.968545,61.796068 55.624064,61.425642 L 54.997729,60.752139 54.872464,51.815347 54.74719,42.878554 53.674175,40.749022 52.60116,38.619489 52.67208,30.727692 c 0.08068,-8.97771 0.125161,-9.195008 2.18168,-10.647663 0.948403,-0.669927 1.263521,-0.7516 2.899863,-0.7516 1.636353,0 1.951461,0.08167 2.899874,0.7516 1.629809,1.151241 2.09482,2.276099 2.195892,5.311793 0.05123,1.539714 0.200667,2.648614 0.375795,2.789045 0.159894,0.128213 1.756325,1.04595 3.547646,2.039415 1.791312,0.993465 3.397856,1.986557 3.570096,2.206872 0.554911,0.709795 0.383276,1.967017 -0.346952,2.541419 -0.363069,0.285587 -0.852482,0.51925 -1.087588,0.51925 -0.235105,0 -1.544588,-0.618857 -2.909976,-1.375237 -1.365388,-0.756381 -2.623445,-1.37645 -2.795686,-1.377933 -0.233846,-0.002 -0.312192,0.774669 -0.309332,3.066337 0.0019,1.687967 0.08664,3.196178 0.187902,3.351578 0.101233,0.155399 1.888757,1.135269 3.972263,2.177488 2.083505,1.042219 3.859165,2.079879 3.945901,2.305912 0.08674,0.226031 0.157696,2.584971 0.157696,5.242088 0,4.464259 -0.03835,4.879872 -0.50498,5.473105 -0.641126,0.815062 -1.969073,1.275263 -2.778491,0.96289 -0.329889,-0.127309 -0.881637,-0.534033 -1.226128,-0.90383 -0.591896,-0.635391 -0.633218,-0.86759 -0.751599,-4.223014 l -0.125265,-3.550654 -2.2548,-1.180363 c -1.240142,-0.649199 -2.367536,-1.147246 -2.505329,-1.106772 -0.157052,0.04613 -0.297278,3.125809 -0.375805,8.25349 l -0.125265,8.179902 -0.764023,0.763639 c -0.812816,0.812418 -2.125983,1.15085 -2.993975,0.771616 z M 27.628572,31.951015 c -1.625678,-0.469492 -3.064641,-2.544397 -3.069239,-4.425669 -0.0018,-0.725639 0.639567,-2.272839 1.198191,-2.890576 0.691474,-0.764644 2.210792,-1.423076 3.283723,-1.423076 2.584017,0 4.535885,1.941387 4.535885,4.511532 0,3.037645 -2.909465,5.105474 -5.94856,4.227789 z M 56.125124,17.419183 c -1.606212,-0.638604 -2.813677,-2.453359 -2.813677,-4.228819 0,-2.054222 1.325618,-3.7490803 3.355681,-4.2903853 2.792315,-0.744554 5.528612,1.3789043 5.528612,4.2903853 0,2.505169 -2.043537,4.536336 -4.521094,4.493718 -0.507755,-0.0087 -1.205041,-0.127939 -1.549522,-0.264899 z"
       id="path1" /></g></svg>
